<?xml version="1.0" encoding="utf-8"?>
<!DOCTYPE svg PUBLIC "-//W3C//DTD SVG 1.1//EN" "http://www.w3.org/Graphics/SVG/1.1/DTD/svg11.dtd">
<svg version="1.1" xmlns="http://www.w3.org/2000/svg" xmlns:xlink="http://www.w3.org/1999/xlink" x="0px" y="0px" viewBox="0 0 1000 1000" enable-background="new 0 0 1000 1000" xml:space="preserve">
	<g>
		<path fill="#ffffff" d="M990,500h-0.6c-3.2,47.8-42.6,85.8-91.3,85.8s-88-37.9-91.3-85.8h-0.6c0-169.1-137.1-306.3-306.3-306.3S193.8,330.9,193.8,500c0,169.1,137.1,306.3,306.3,306.3v0.6c2.1-0.1,4-0.6,6.1-0.6c50.7,0,91.9,41.1,91.9,91.9S556.9,990,506.1,990c-2.1,0-4.1-0.5-6.1-0.6v0.6C229.4,990,10,770.6,10,500S229.4,10,500,10c266.5,0,482.8,212.8,489.4,477.7c0.1,2.1,0.6,4,0.6,6.1c0,0.7-0.2,1.3-0.2,2C989.8,497.3,990,498.6,990,500z" />
	</g>
</svg>
